/* XPM */
static char *e16a2aa2a0a04142bcd2f3c511641d0b[] = {
/* columns rows colors chars-per-pixel */
"64 64 256 2 ",
"   c #020D04",
".  c #020E0A",
"X  c #090E0A",
"o  c #021304",
"O  c #031B03",
"+  c #03130B",
"@  c #031B0C",
"#  c #0A180A",
"$  c #031312",
"%  c #051C12",
"&  c #0A1C12",
"*  c #081815",
"=  c #141E14",
"-  c #141C04",
";  c #032302",
":  c #03230C",
">  c #0A230C",
",  c #092906",
"<  c #162708",
"1  c #0B3705",
"2  c #173509",
"3  c #032413",
"4  c #0A2413",
"5  c #052B13",
"6  c #0C2B15",
"7  c #0B2C1A",
"8  c #06281A",
"9  c #172917",
"0  c #033415",
"q  c #0B341B",
"w  c #0C3B1B",
"e  c #083718",
"r  c #183719",
"t  c #272C03",
"y  c #29380A",
"u  c #363A09",
"i  c #242C19",
"p  c #28381A",
"a  c #343E19",
"s  c #0A3C22",
"d  c #163923",
"f  c #0D2E21",
"g  c #283626",
"h  c #313927",
"j  c #0B431C",
"k  c #094617",
"l  c #154719",
"z  c #175719",
"x  c #144A0C",
"c  c #38480C",
"v  c #2A540A",
"b  c #35550D",
"n  c #2C4716",
"m  c #374718",
"M  c #295519",
"N  c #365918",
"B  c #2C490A",
"V  c #316719",
"C  c #0C4323",
"Z  c #0B4628",
"A  c #164926",
"S  c #0C5728",
"D  c #175728",
"F  c #194A32",
"G  c #165A34",
"H  c #0B4A32",
"J  c #264628",
"K  c #394827",
"L  c #265928",
"P  c #375527",
"I  c #284932",
"U  c #285939",
"Y  c #385836",
"T  c #374532",
"R  c #18652A",
"E  c #0D6535",
"W  c #156B34",
"Q  c #1C6C33",
"!  c #176738",
"~  c #1A7439",
"^  c #10662D",
"/  c #266629",
"(  c #366728",
")  c #246C34",
"_  c #286737",
"`  c #346937",
"'  c #27763A",
"]  c #387539",
"[  c #30742A",
"{  c #19641F",
"}  c #454A17",
"|  c #485618",
" . c #555B1A",
".. c #464C0C",
"X. c #57681B",
"o. c #4C6B19",
"O. c #64791E",
"+. c #434C29",
"@. c #485429",
"#. c #555A24",
"$. c #484C34",
"%. c #4B5535",
"&. c #55583A",
"*. c #504F3A",
"=. c #5A6629",
"-. c #486839",
";. c #586739",
":. c #477738",
">. c #557937",
",. c #4E7129",
"<. c #657728",
"1. c #666B37",
"2. c #6C7538",
"3. c #767B39",
"4. c #646628",
"5. c #2C5B45",
"6. c #1A7845",
"7. c #137348",
"8. c #2B6847",
"9. c #366946",
"0. c #287945",
"q. c #37774A",
"w. c #387756",
"e. c #2C7056",
"r. c #357A63",
"t. c #1A5E46",
"y. c #477746",
"u. c #5A7843",
"i. c #467C52",
"p. c #55714D",
"a. c #677746",
"s. c #767C4B",
"d. c #68724D",
"f. c #545640",
"g. c #28813D",
"h. c #38833E",
"j. c #1F833D",
"k. c #748A1B",
"l. c #77981E",
"z. c #678716",
"x. c #7AA41B",
"c. c #47853C",
"v. c #568633",
"b. c #688B27",
"n. c #748A27",
"m. c #779725",
"M. c #678539",
"N. c #788838",
"B. c #7A9639",
"V. c #6A9432",
"C. c #7CA529",
"Z. c #78A33A",
"A. c #5F8412",
"S. c #16844A",
"D. c #188955",
"F. c #1A995A",
"G. c #0D844D",
"H. c #2B8C4B",
"J. c #278546",
"K. c #39854C",
"L. c #29914D",
"P. c #299855",
"I. c #329352",
"U. c #369857",
"Y. c #308B54",
"T. c #2BA25B",
"R. c #32A35C",
"E. c #279464",
"W. c #2DA767",
"Q. c #1CA25F",
"!. c #4A8649",
"~. c #578548",
"^. c #4A8756",
"/. c #489558",
"(. c #57975A",
"). c #4D8E50",
"_. c #688946",
"`. c #689448",
"'. c #789547",
"]. c #768A54",
"[. c #799A57",
"{. c #6F8B53",
"}. c #4AA35A",
"|. c #79A556",
" X c #4C9864",
".X c #589A66",
"XX c #4D8D6D",
"oX c #659966",
"OX c #799465",
"+X c #738C67",
"@X c #5BA768",
"#X c #5BAC70",
"$X c #68A769",
"%X c #65A874",
"&X c #77BB78",
"*X c #6FB070",
"=X c #7CC16E",
"-X c #87943B",
";X c #85AA27",
":X c #89B32B",
">X c #88A738",
",X c #93B334",
"<X c #8FAD29",
"1X c #899749",
"2X c #8A9959",
"3X c #959B58",
"4X c #8C934C",
"5X c #88A645",
"6X c #88A455",
"7X c #98A859",
"8X c #9BB558",
"9X c #94B04C",
"0X c #A4B65B",
"qX c #A5B154",
"wX c #889765",
"eX c #919E64",
"rX c #87936C",
"tX c #87A86A",
"yX c #97A668",
"uX c #9AB56A",
"iX c #99B878",
"pX c #8CB072",
"aX c #A9B768",
"sX c #A7B578",
"dX c #B3BA76",
"fX c #A8B06F",
"gX c #AFC64D",
"hX c #97C370",
"jX c #B7C67A",
"kX c #B1CA70",
"lX c #C3D26C",
"zX c #CCE57A",
"xX c #6FB487",
"cX c #5F9B82",
"vX c #76C683",
"bX c #7CC7A0",
"nX c #A9B783",
"mX c #B4B888",
"MX c #97BF83",
"NX c #C1BD8E",
"BX c #85C988",
"VX c #8DD193",
"CX c #A6C889",
"ZX c #B5C784",
"AX c #B2CF91",
"SX c #B4E592",
"DX c #92D5AD",
"FX c #B2E4AC",
"GX c #A4DCA8",
"HX c #C7CD8B",
"JX c #D9EC8D",
"KX c #E9FA9A",
"LX c #E7F694",
"PX c #CBD3AE",
"IX c #F1FCAC",
"UX c #ADEFCB",
/* pixels */
"k 6.P.E.7.r.8.K.%XxX#X/.@X(.*X&X`.v b b B M ( }.] $XvXP.F.W.W.W.W.W./.[ b X.X.b.9XkXZXkX9X|.).P.P.T.P.P.R.R.P.W.R.R.P.T.P.I.I.U.",
"6.D.P.E.e.r.e.w.w.q.q.U.#X@X@X*X~.v b B M / ' U.[ ).GXI.F.F.Q.F.F.P.I.( b X.<.n.9XkXHXaX9X|.I.T.R.P.P.P.P.P.P.P.R.R.T.T.T.P.I.I.",
"E.D.D.D.E.r.e.8.8.w.8.0. X#X(.*Xc.v b B M ' P.W.g.[ GX*XP.Q.F.P.Q.T.I.( N X.O.N.8XjXjX0X5XV.}.Q.T.P.P.U.H.L.L.L.I.I.P.R.R.U.I.I.",
"D.D.D.G.D.E.e.5.t.8.w.XX X#X@XoX[ v b b / J.E.E.0.{ |.VXP.F.F.P.Q.U.K.( N X.O.B.uXjXjX7X5XV.}.T.P.T.P.L.H.H.H.L.J.J.H.I.U.U.I.I.",
"G.D.D.G.G.D.e.5.w.cXDXbXxX X.X$X[ v b b c.J.D.D.~ R c.&X}.G.F.S.D.L.] N | X.<.B.aXjXkX9X5XhX).R.T.T.D.S.H.J.H.J.J.J.g.H.L.I.I.I.",
"G.D.D.D.G.6.e.w.XXcXDXDXxX@X$X$XV b b N *XI.S.D.J.R [ /./.6.F.D.S.J.] N | X.<.B.aXjXaX8XB.SX=Xg.T.T.P.D.J.0.Y.J.J.J.g.J.H.H.I.I.",
"S.G.G.G.G.6.0.w.e.XXDXUXDX#X).$X( N o.v.&X@XJ.S.J.R R h.H.S.D.E.D.J.( N | X.<.B.aXkXaX5XB.8XSXc.J.U.U.Y.J.6.H.J.0.J.J.H.H.H.H.I.",
"~ G.7.G.D.7.6.e.r.XXxXDXGXVX(.(.( M o.|.*X#XY.6.~ ' Q ' 0.6.7.E.D.0.L c ..X.<.1X7XaX6X5Xb.v.kXpXQ I.H.J.J.~ 0.H.J.J.H.H.J.J.J.H.",
"H.D.7.7.7.6.J./.e.w.%XDXGXGX*X] o.M y.*X*X*XU.S.S.0.) ) J.J.S.6.J.' P c  .X.<.1X8X9X1X5Xv.V v.hX!.[ g.Q K.' ~ H.~ S.J.j.g.J.H.L.",
"0.6.7.S.7.~ U. Xr.8.XXxXVXVX&X[ M ( (.oX$X&XU.~ E W R ) ' W W 6.~ ) M c  .X.2.1X0X9X-X1Xv.V V c.(.{ ' g.' ' 0.~ J.J.J.g.' ' ' ' ",
"! E E 6.6.~  X Xw.8.w..XBXVXBX] M L ^.oX.X%X#X^ E E R ) ) R W W W / n c  .<.N.1X0X9XN.'.[ / / / ).) ' Q J.' Q ~ ~ ~ ~ J.' ) ) ' ",
"0.0.E E W ~ @X/.w.e.q. X&XVXBXK.J ` ` ^..X$X%X0.W E W Q / _ ) W ) L n }  .<.N.1X0X5XN.'.V R ) ' [ ) ' ~ ' Q W ~ ~ ' ' ' Q ) ) ) ",
" X%X@X0.R R @X(.8.w.8.i.%XVXBX/.A 9.` ` ^.oX%X/.! W W R / ` ' ~ _ M n } | <.N.7X8X5XB.'.{ ^ ! 6.R W J.0.~ W ~ W ~ ~ W ) R R ~ 0.",
") K.%XvX/.R (.).8.w.8.e.%XBXVX XD L _ q.9.i.%X.X~ 6.! D L ] ] ) ` M c } o.<.B.qX8XB.'.`.R W W 6.W W 6.0.0.W ~ ! R Q ) R R ' g.' ",
"0.K.K.@XvX).)..X) 8.e.8. XxXVX.XG D D 0.w._ ^.$X0.6.t.D L _ ) ) ` n n | X.<.1XqX8X'.'.~.R ~ W 6.W W ~ 0.6.W 0.! Q R / [ [ [ ] h.",
"W Q 0. X*X*X*X^.) 8.w.8.q.%XVX%X_ S D ! ^._ _ .X~ 6.t.D z z z ) ( n m | =.<.1XqX7X1X6X>.R W W 6.^ ~ ~ ~ Q ^ Q R R / / / [ [ c.`.",
"~ E W ' @X&X%Xq.' w.8.8.w..XVXBXK.S ^ ^ K.9.l K.0.6.E G _ k D ) N n m  .=.N.7XaXyX2X2X:.R ^ Q ) ! R ' ! ! ! R R v ,.v.>._.`.M.X.",
") R D R Q K.K.8.G _ G 8.9.^.xXVX XS ^ ^ q.` j _ 0.! E G _ A D R m n m  .=.N.7XaX7X1X2X:.R E W ) ^ ! ! ! D z z / :.:.`.6XuXZXJXIX",
"*X/.R S G S ! G Z H Z 9.8.w.%XVX%XG S S ' ` j D 8.! G S _ j L L n B } X.<.'.uXdX8X1X[.] D E ! ) ^ ! ! k z V :.] L ( =.<.X.X.M.6X",
"~.&XvXK.k E t.t.Z C j 8.8.q..XBX&X' ! G ) / j Z H G S G U w J M y c | =.M.6XsXnXaX6X[.( D ! ! R D k D / c.[ / L L L ,._.M.M.<.o.",
"y.).*XvX/.k H t.Z A D ` 8.9.^.&XBX(.q.q.q./ A Z Z Z Z S D l l n y c  .<.N.7XdXmXaX7X[./ D G D R ( ( :.( z l D l k z L L ,.M.2.N.",
"9.` !.$XBX' _ 8.L ` !.^.q.8.y.$XBX$X/ _ L D A s A C A j j l 2 n y m  .<.B.8XjXZXaXyX[.L D D / ] -.( ( ( ( ( ( ( M z x x l M -.>.",
"F U y.] .X%XD 8.^.).).^.9.U 9.oXBX*XL k j A C j C j A j A r 2 y u }  .<.1XaXjXZXaXyX`.M D D _ ` l J M N [.'.>.M.V.,.x x z k k l ",
"Z C D 9.^.%X9.^..X!.` ` 8.5.Y ~.hXpX] k j C w j C j e j A r p y u } #.3.3XkXjXjXuXuX`.x D L _ l A j l n <.8X9Xn.V.5X8Xv 1 L w F ",
"j C 0 j ` 9.i.^.] / L L F 5.U p.pXCX~.1 C Z w w C j w w w J n t u }  .3.7XdXjXjXdX7XM.x z L D A k A 1 >.b.k.zX5Xb.b.'.SX>.x j Z ",
"D k j s w A U G Z j j j s 5.I Y oXAXtXl A C w C j j w w w J m t u | #.N.7XdXjXjXaX7XM.1 z l A Z C A l >.b.z.9XzXn.m.O.5XSXN l F ",
"*X!.l C C e U F H Z C C s I J P ~.AXCXL A Z w w C j w w q J p t m | 4.N.7XdXHXlXaX1XM.x l D j w s j z v.b.z.k.JXqXk.m.z.8XhXx D ",
"(.$X(._ 0 0 5.F H Z s C s d J P u.MXAXy.j Z s e C e w w q p y u a } #.4.-X3XdXdXlX3X{.x j j C s Z k v V.b.z.A.gXzX;Xl.m.A.kX|.1 ",
"!.(.(.(.] k F F e C w w s d I J P tXFXoXl w s e e 0 w w r p t t y u u ..4.3.4X3.3.2.P 2 A e w e Z k v V.b.b.k.>XLX,Xl.m.C.m.zXO.",
"i.] :.] c.` A 8.j j j j s q I J P OXFXBXL 5 q q e 0 q 6 r K y t t u .... . .4. . .} 2 e w w 0 s C 1 V V.m.m.n.m.JXkXm.Z.m.l.,XkX",
"` ` :.:.!.!.i.q.F e e w d 5 J I Y p.CXCX:., 6 q e e e 5 r %.@.+.@.} u .. .4.#...} a p 5 0 0 e A w 1 ,.Z.m.m.m.k.kXKXb.C.;XC.m.qX",
"l ^.*X$XoX^.^.i.5.A w w d 7 J J I -.pXAX`.2 6 7 e q q 5 r %.%.;.s.wX3X3X2X2X4Xs.s.+Xg 5 e w A w w 1 ,.5Xm.l.m.k.0XKXn.C.;X;Xl.k.",
"oX$Xi.y.9.U U A A F I A w q d I J %.tXAXpXN r f e 5 r 6 p @.@.=.1.4X3XmXPXPXPXPXPXAXd e s w q f q , ,.5Xx.x.C.m.9XIX9Xk.:X;Xm.-X",
"~.y.y.5.F w w w 0 5 F U A q d Y J P {.AXiX>.2 r e 5 r > 2 @.#.#.2.4X3XdXNXHXmXmXPX+X5 q q e q 8 q , ,.>X;Xx.C.C.>XKXHXO.>Xx.;Xn.",
"Y ` s 5 q 0 d q q 7 7 d J d 7 I K P >.iXCX[.y , e 5 q > p @.#.=.3.4X3XfXmXNXnXmXPXY : f q 8 q 8 q , v 9XC.C.:Xx.l.LXHXX.5Xm.l.k.",
"l U F q 5 3 5 w d 7 7 5 7 g d I J K -.pXAXpX;., , 7 6 : n @.} 4.2.4X3XfXNXNXnXZXnXr 5 8 8 8 7 6 5 , 2 V.>X:Xx.;X;XlXKXc <.>Xm.z.",
"w w A I F d 5 : q 5 7 7 4 9 4 g p n P _.AXnX{.n > 7 7 O n @.| =.2.4X4XaXHXmXnXAXOX, 6 3 8 7 3 6 ; r ; ,.9X:X;X:X;XgXIX .< 2.B.k.",
"A L ` 9.9.9.I J 6 q 7 6 6 r 4 g h h K a.nXnX{.-.6 > 3 : a +.#.4.3.4X1XaXHXmXdXZX-.O 5 3 3 3 5 3 5 : 5 l 6XC.,X;X;XgXKX=., 2 ,.n.",
"oXoXoXy.^.9.q d A J I I @ 4 4 9 T 9 p @.+.;.u.%.r : 3 > K } #.1.3.4X1XaXjXdXsXsXp O : 3 3 3 5 3 5 @ f ; ,.9XC.,X;XgXKX2.O > , N ",
"i.:.( u.oXr : 3 : r J I 6 4 4 9 i 9 < a m K P n 9 6 4 > K @.#.1.3.4X1X0XdXfXyX2XO > @ 3 : : : 3 3 7 3 : 1 Z.,X:X:X,XKX2XO 6 5 ; ",
"` y.v.|.y.; : 6 A J d g r 6 6 d g i < < y y m K r @ 4 > K m =.2.N.3X1XaXaX7XyX;.; : 3 8 5 > 5 3 8 3 7 > ; n 8X:X,X;XLXuX, 8 7 7 ",
"-.>.`.pX2 5 r -.9.J 3 6 r r 9 9 p < - i d.nXmXnXd.9 4 9 +.@.=.1.1X7X3XaX0X1XeX@.> 4 8 7 7 7 6 7 7 8 6 6 > 2 b.,X,X;XJXZXO f f f ",
"u.[.pX:., , y.{.-.I 3 4 6 9 9 9 9 g i K +XAXPXCXrX< > 9 K @.=.2.4X7X7XkXqX1X2Xn > 4 8 8 3 4 4 4 8 3 3 6 4 ; B 5X,X<XzXHXO 7 f 7 ",
"_.tXOX2 ; -.pX:.-.Y : % 4 4 > 4 < T h +.d.rXAXsXrX; O 9 K } =.2.4X7X7XkX7X3X].< @ @ % % @ @ @ % @ % % : 3 @ O =.9X<XlXJX> % 3 3 ",
"6XiXJ , P iX_.:.u.-.: @ @ @ @ @ & h h h &.d.nXnXrX2 O p @.} =.2.3X7X0XaX3X7Xa.O @ @ @ @ @ @ @ @ @ @ @ @ @ % O t >X,XgXJX2 O @ : ",
"pX( O P hX|.>.>.u.-., @ O O @ & o 9 T g +.a.yXsXOXp O g @.@.=.2.3X7XaXaX6XyX;.O @ @ @ @ @ @ @ @ @ @ % O @ @ @ o <.9XqXLXy O : > ",
"P ; , tXiX`.>.>.u.-., O > > & * @ * g g h %.].ZX[.p O J K } =.s.7X7XaXaX6XyXK o @ @ @ @ @ % @ @ @ @ % O : @ 4 o u -X9XKXy O 4 4 ",
"O O >.CX|.>.>.>._.;., O O @ * * & + 9 g p K 1.sXwXn O T +.@.=.].yX7XaXaX2X2X2 o @ @ O @ @ @ @ @ @ % % O : % & # - 3.-XLXm o 4 @ ",
"4 J tXuX_.>.>.v.M.>., > @ @ % * % @ & i i a ;.wXwXK < T K @.=.s.7X7XjX7X6X].- @ @ @ @ @ @ @ % % % % @ @ @ @ % % # m -XJXn O 4 * ",
"; p.CX'.u.>._._.M.-., @ @ @ @ % & @ * 9 p p @.s.{.+.p $.+.@.=.].2XyXjX7XyXu.O % @ @ @ @ @ % % * % % % @ % % % & # < n.JXm & @ 4 ",
"2 iXuXM.u.-.'.'.M.@.; @ @ @ @ % @ + # = h i a ;.;.@.K %.+.@.=.].3XyXZX3XyX%.o @ + @ @ @ @ @ @ @ @ @ @ @ % % @ @ X -  .HXK + @ & ",
",.iX[.>.u.y tX_._.n O @ @ @ @ @ @ + o # h i p %.;.%.K +.+.@.;.].yXfXjX7XyXK   $ + + + + + @ @ @ @ @ + @ $ % @ @ $ o u HXK   & % ",
"6XpX_.{.p , tX_.a.2 o & + @ * + @ @ +   g g i K @.%.+.+.+.&.1.2XyXdXZXyXwX9   @ + + + + + + + @ @ @ + + $ $ @ $ $   t nXh + @ % ",
"uX[.{.P O , [.{.;.; O & o o @ + + @ +   9 g i i K %.$.@.$.&.1.2XyXjXZXyXwX- o o @ + + + + + + + o + + . + + + + $ + o eXh   o % ",
"tX{.-.O O < {.{.K O O @ o o @ + + + o + X g i 9 p %.%.$.%.&.1.2XyXdXjXfX].o +   @ @ + + + + + + + + @ + @ @ + + $ =   d.h   @ % ",
"OXp.r O O , {._.r o @ o o O o @ @ o o #   g i < i $.%.$.%.&.a.2XeXZXdXsXp.  + + o o + + + + + + . + @ @ @ @ + + X + o %.9 + @ $ ",
"{.n O O @ O +Xa.@ @ + + O O o $ + + + + X = 9 = < K *.*.%.;.a.2X2XdXsXnX%.    + + . $ + + + + + $ + + o o @ + + + + o 9 # @ + $ ",
"J , O @ & O d.u.o @ $ @ o o o $ + + o   . & 9 = < K $.*.*.&.a.2X2XsXfXsXK   + . o + $ + + + + + . + + o o o + + + + o = + o @ $ ",
"O O o @ & o p.%.o + @ + o o + $ + # o . X * 9 = < $.$.*.&.&.s.yXeXfXfXiXp   +   o + $ $ + + + + . + + o @ + + + $ + + +   + $ $ ",
"# + @ + @ o T J   @ @ + o o   X + # + . + X = = i *.*.*.&.;.s.yXyXuXsXyX<   *     . . . . . . . . + + + o + + + $ $ $ + + + $ + ",
"* o * + $ + 9 < o + + o o o   X   o o . + . & = i *.*.*.f.f.s.eXyXyXsXrX#   + .   . . . . . . . . . . + o .   . $ . $ . $ + + . ",
"@   @ # + + # o # X + o + +         + . + . # = h f.*.*.&.d.].eXyXyXsXrXo . X . o . . . . . . . . . . + + . .   $ . $ . + . . X ",
"# + + # +   + o + +     # +   X X   o o . +   < $.&.*.&.&.d.s.eXyXeXsXs.  . . .     . . . . . . . . . + + + .   X . + . . . . X ",
"+ #   + +   #   X       +     X X   o     +   < &.&.&.&.&.d.s.yXeX2XyXd.  . . .     . . . . . . . . . . . .         + . . + . X "
};
