/* XPM */
static char *_32b778d31c048d1a4e967ad34ec5399[] = {
/* columns rows colors chars-per-pixel */
"64 66 241 2 ",
"   c #0C0B07",
".  c #130B03",
"X  c #1C0D02",
"o  c #140B05",
"O  c #1C130C",
"+  c #1A1308",
"@  c #1C1715",
"#  c #0A1118",
"$  c #270C00",
"%  c #2C1403",
"&  c #24160C",
"*  c #23190D",
"=  c #2C1A0C",
"-  c #291606",
";  c #331500",
":  c #3A1600",
">  c #351B02",
",  c #3B1D02",
"<  c #331C0C",
"1  c #3A1E0B",
"2  c #241B13",
"3  c #2C1D12",
"4  c #251B17",
"5  c #331E10",
"6  c #3D2104",
"7  c #36230D",
"8  c #3C220C",
"9  c #3B270A",
"0  c #2A2015",
"q  c #2B221A",
"w  c #26211B",
"e  c #342213",
"r  c #3B2412",
"t  c #3A2A1A",
"y  c #372718",
"u  c #352910",
"i  c #101824",
"p  c #1D242B",
"a  c #1C2934",
"s  c #232A2D",
"d  c #292728",
"f  c #322A24",
"g  c #342C29",
"h  c #3C3427",
"j  c #252B32",
"k  c #282D37",
"l  c #2B343A",
"z  c #343433",
"x  c #34393C",
"c  c #3A3C3C",
"v  c #383737",
"b  c #2F312E",
"n  c #451C00",
"m  c #4B1D00",
"M  c #491700",
"N  c #511E00",
"B  c #442202",
"V  c #4C2301",
"C  c #4E2904",
"Z  c #43240B",
"A  c #4B2609",
"S  c #4C2A0D",
"D  c #432A0D",
"F  c #532500",
"G  c #552A03",
"H  c #5A2C03",
"J  c #542D0A",
"K  c #592E09",
"L  c #592700",
"P  c #5D3206",
"I  c #56310C",
"U  c #5D330B",
"Y  c #553006",
"T  c #432B14",
"R  c #4C2C12",
"E  c #432D1B",
"W  c #452917",
"Q  c #512E12",
"!  c #4C331B",
"~  c #483316",
"^  c #533213",
"/  c #5C3512",
"(  c #5E3814",
")  c #543419",
"_  c #59381C",
"`  c #602D00",
"'  c #633205",
"]  c #62350C",
"[  c #67370B",
"{  c #613611",
"}  c #623A14",
"|  c #623B1A",
" . c #483728",
".. c #573922",
"X. c #423E3B",
"o. c #493D33",
"O. c #422F20",
"+. c #3F403B",
"@. c #5B4227",
"#. c #44423E",
"$. c #4D453C",
"%. c #4D4235",
"&. c #514334",
"*. c #53463A",
"=. c #574A3C",
"-. c #4D402F",
";. c #65462D",
":. c #664B35",
">. c #69523B",
",. c #71553E",
"<. c #2A3845",
"1. c #343B43",
"2. c #3C3E42",
"3. c #3D3E4A",
"4. c #343B46",
"5. c #383F52",
"6. c #413F40",
"7. c #3C4244",
"8. c #35424C",
"9. c #3B424C",
"0. c #3A454B",
"q. c #3B4553",
"w. c #3D4C5A",
"e. c #394653",
"r. c #3E515F",
"t. c #3D4D64",
"y. c #434443",
"u. c #4A4643",
"i. c #4C4946",
"p. c #43454A",
"a. c #45494C",
"s. c #4C4C4B",
"d. c #4A4549",
"f. c #524E4B",
"g. c #564C42",
"h. c #4E504E",
"j. c #54524E",
"k. c #5B534D",
"l. c #5D5147",
"z. c #444C54",
"x. c #4A4D52",
"c. c #434D5A",
"v. c #464654",
"b. c #4D5254",
"n. c #45535C",
"m. c #4B545C",
"M. c #495559",
"N. c #545453",
"B. c #5C5652",
"V. c #5D5854",
"C. c #52555C",
"Z. c #54595C",
"A. c #5D5C5B",
"S. c #534D51",
"D. c #625C56",
"F. c #67554A",
"G. c #61605D",
"H. c #776456",
"J. c #455463",
"K. c #4A5662",
"L. c #4C5A63",
"P. c #4C5B69",
"I. c #465A61",
"U. c #535B63",
"Y. c #5A5C62",
"T. c #545E6A",
"R. c #545764",
"E. c #4E5469",
"W. c #615F67",
"Q. c #5C6265",
"!. c #54626C",
"~. c #5C636B",
"^. c #546264",
"/. c #556472",
"(. c #5C6673",
"). c #5E6B75",
"_. c #5C6C7A",
"`. c #55687D",
"'. c #576977",
"]. c #646463",
"[. c #62636A",
"{. c #6C6C6C",
"}. c #686868",
"|. c #636C74",
" X c #6A6E74",
".X c #636E7C",
"XX c #686976",
"oX c #6A7375",
"OX c #64727C",
"+X c #6B747D",
"@X c #6B7A7C",
"#X c #647377",
"$X c #727274",
"%X c #72757C",
"&X c #747A7D",
"*X c #7C7C7C",
"=X c #797675",
"-X c #75706C",
";X c #827C7C",
":X c #826557",
">X c #7C807F",
",X c #86827E",
"<X c #5E7285",
"1X c #5A6F84",
"2X c #676F82",
"3X c #657483",
"4X c #6B7683",
"5X c #667984",
"6X c #6C7A85",
"7X c #67798B",
"8X c #6C7B8A",
"9X c #68758A",
"0X c #717681",
"qX c #737B85",
"wX c #727E8A",
"eX c #797D86",
"rX c #6C7C92",
"tX c #887F80",
"yX c #6F818A",
"uX c #6F8087",
"iX c #7C8285",
"pX c #75828D",
"aX c #7B838B",
"sX c #798489",
"dX c #6D8194",
"fX c #748392",
"gX c #7B8593",
"hX c #7A8A97",
"jX c #7D909E",
"kX c #838383",
"lX c #86878A",
"zX c #848C96",
"xX c #939496",
"cX c #8997A4",
"vX c #919CA4",
"bX c #9CA8B1",
"nX c #A7AFB4",
"mX c #B1BBC4",
"MX c #BBC5CD",
"NX c #FCFFFC",
"BX c #D0D4D3",
/* pixels */
"NXbXU.qX5X<X1XdX8X.XT.d.2 5 % ; B , B C n / J V I G n / K K G m G U G K F V U V F G m U K G G G ; @.% - f. X!.8XdX<X3X3XpX|.C.lX",
"NX&XQ.qX8X7X`.<X3X4XqXS.4 5 ; , B , B C B U J B J C n / G G G m G U G K F C U V F G m U K G G G B _ 9 X D.$XqX7X1X<X8X7X6X XC.iX",
"BXb.&X6X5X8X7XdX3XqXkXX.& 5 % : B B C Y B U F B J G m / J J G V G U G H F V ] V G G m U H G G G C ^ T X g.%XaX5XrXdX8X7X4XsXZ.}.",
"MXb.zX~.3X5X8X8X8X4X$X4 & r ; ; V V G Y B U F B J G m / J J G V G U G H F V ] V G G m U H G G G n / R 7 2 $XqX8X7X7X3X5X).lX[.{.",
"xXa.[.z.fX5X8X5XwX%XW.O = T ; ; J C G Y n U G V H G m ] H H G B G U L H F F ] F G G m U H L G G n } ^ ! . }.&XwX3X7XrX5Xc.~.b.Q.",
"Q.p.U.z.gX3X4XfX4X%Xf.O e 8 ; , U F G G n P G C H G m ] H H G B G U L L F F ] F G G m U H L G G V U J ! X f.eX+X7X7XfX3Xz.T.z.p.",
"Z.XXeXm..X.X.X4X+X&Xv & e , ; n U G G G m U G C H G m ] H H G V G U F L F F ] F G G m U H L G G V U C ~ - h *X+X5X_.5X/.K.aX+Xb.",
"C.%XzXq.K.zXhX4XsXiXq & r 6 ; B U G G H m ] H V H G m ] H H G V G U F G F F ] F G G m U H L G L m ] C ..- f *XeXpX7XfXP.c.aXaXC.",
"i 3.9.k 5.q.K.z.z.d.O = 8 , , V U G H G n P G F G G m U G H G V G U G L F F ] G G L m H L G L L F H G _ % . i.M.n.J.w.8.<.z.z.j ",
"v.+X(.l 2X.X4X.X X].q = 7 , , B ] L H H m ] H G H G V ] H H H V G ] G H F F } G H L m ' K H H L m H J _ t  .=X&XOX5X7X4XOX+X|.1.",
"R.zXqXc.4XfXgXOXeX$Xf = 7 6 : , U F G G n P G F G F n U F J F B F U F G V V ] F G G m U H G G G m U J R r $.kX@X6XyX8X8X8XwX%Xp.",
"m.wX4XOXc.4XwXXX+X{.q & 7 Z B V U G H H m ] K F G G B U J J G V F U G G F C { F H G m U K K G G m } J R e $.kX|.6X8X5X3X3XwX+X3.",
"L.8X4XwXJ..XwXqXeX=Xg & - > 6 C I G G G n U K F J G n I G J G B C I F G V B { C G J n I J J G G n I J ~ y $.kX@X4X8X7X8X6X0X[.k ",
"K.pX8X3XfX_.P.|.|.}.f 0 e 1 : B / G H H m / U J J J B / J I J V G / G J C C } G J J n / J J G G m I Q ! y #.>X@XOX5X5X7X4X4X(.k ",
"n.wX5X3XjX/.c.U.z.d.O 3 t 8 6 A / G K K B } I J I I V ( I I I B J / J I C C | J J I B / / I J J F } Q ~ y #.iX@X4X8X7X9X4XwX0Xp.",
"L.6XOX8X3X.X).6XeX}.@ O & X X % , ; : : $ 6 , ; > ; $ 6 > > > % ; , ; ; % $ Z ; ; > $ , : > ; ; $ 8 > & O #.iX+X5X8X7X7X4XwX+X3.",
"m.+XqX6XwXL./.wXOXqXj s v z v $.%.=.&. .=.g.&.%.*. .=.*.o.*.*.=.&. .=.%.*.l.&.&.%.o.=.&.o.*.o.*.$.$.i.y.a.s ~.qX4XOX8X4X4X4X4X9.",
"U.gX|.).6Xc./.yX3XOXk 1.p.2.p.Z.s.G.G.j.s.s.j.}.D.s.N.N.A.].V.N.j.j.].V.f.N.j.G.G.j.N.j.A.].V.N.N.x.Y.~.4.q.aX4X4X3X8X6X6X4X4X9.",
"z.gX+XOXpX8.L.wX6X).k 9.p.z 6.N.N.Z.b.s.b.b.b.Q.C.a.a.a.Y.~.x.p.a.N.].N.p.p.b.Q.U.a.a.a.Z.Q.b.a.N.s.].Q.p.z.aXOX6X4XwX6XqX6X4X9.",
"l c.n.L.P.k 4.m.L.z.# j b d X.f.h.7.x 7.b.b.p.7.s a.U.x.7.l x m.Z.0.l x a.Z.x.x s 7.Z.m.1.l 1.x.i.#.u.d c # 0.9.e.4.e.e.e.e.9.# ",
"bX|.4X4XwXwXwX6X+X|.s z g h *.g.i.y.y.s.h.d.a.a.d.s.y.p.N.N.p.p.y.s.h.s.y.#.s.b.d.p.y.s.C.x.a.y.l.g.l.v s.c %X4X+X.X3XOX+XOX.X1.",
"MX).6X+X.XpX6X+XqX%Xd @ X X = & 0 * 2 0 * * 0 0 O q 0 q 4 O 4 q 0 0 O * 0 0 q O 2 0 4 q 2 + 4 y $ - & 0 o #.lX+XqX4XwX6XwXqX0X8.",
"mX|.pXpXOX3XOX+XoX$Xw + & - < > D > > > ; 1 8 > > > % 1 7 > 7 % > 8 > > > > 8 1 8 1 $ > 8 > 7 > ; D 7 t . u.kX XqX+X4X4X6X4X+X4.",
"mX+X4X6XwX5XqXqX&X*Xf 3 t r 8 Z / J I J C I ( G I J V / / J } B J / G J J C ( I I J B / | J / A B _ R E O.u.*XiXsX6XwX8XwXwXqX3.",
"mXl !.n.n.!.n.U.b.f.O & e 7 , B U L L L m ' H L L L m ' H H L F L ' L H L F ] G L G F H H L L L m J S ! E q A.b.U.n.K./.K.L.K.p ",
"nXm.+XOX5X4X).|.oX}.q = < 1 , V U L L L m ' H L L L m ' L H L F L ' L H L F [ L L L F H H L L L F { A T r 3 }.~.U..X/.a /.T.z.l ",
"MXqX6XOX4XOX6XqX%X{.f 3 8 , n B U G G G n U H F G G m U G K G V G P F H F V ] G G G V H K F G L m ] G R E  .kXqX4X8XzX!.gXwXqX9.",
"nXOX4X6X8X3XwX4XqX$Xf 3 8 , n B U G G J n U I C J G B / J J J B G U F J C V ( G J G B J I C J F m ] G S E o.kX+XpX).J.K.OX4X+X1.",
"MXOXwXpX5X8X8X+XiX$Xf = 1 , n V U C J J n / I C J C B / J I J B G I C I C V ( C J C B J ^ C J G m [ G A E o.lX@X).J.'.hXK.m.zXx ",
"vXU.!.!.J.!.!.!.U.Z.4 = r 8 n B U G G J n U I C J G B / J J J B G U F J C V / G J G B J K C J G m [ K R E h {.c.a ).8X3X+X3.C.2.",
"x q.c.K.T.P.P.K.m.b.2 3 r Z , B U G H G m U H F L G m U H H G V G P L H F V ] G L G V H K F G L N [ K Q r * s.l 8.w.<.<.n.9.j @ ",
"z.vXpXwXhX5X8XwXaX&Xg 3 1 , n C U G H H m ' H G L G m ' L H L V G P G H L F ] L L L V H K F G L m ] G R T h kXsXfXfX_.3XpXaX1.[.",
"L.0XOX4X5X5X3X4X%X$Xg 3 8 , n B U G L G m U H G L G m U H H G V F U F H F V ] L L { n / _ R Z ) n _ S ^ 9 -.,X XwX_.!.#X+XqXp.W.",
"U.qX4XwX8X8X4X6X%X}.4 = 8 , n C U G G G n ] H G G G m U G K G V G I F H F V ] G G G n ) Z Z E r 1 ..) ^ >  .lX%XT.'.!.^.^.&X3.x.",
"m.6X4X6X7X8X7X8X0X].2 = r , n C U G G G n U H G G G m U H K G V G U F H F V ] G K J n S Z !  .T E Z 6 ! T &.,XY.c.3XpX#XZ.oXv.XX",
"L.qX4X4X3X7X4X6XeX{.4 = 8 , n C U G G G n U H G H G m U G K G V G U F H F V ] G C ( : Z >.H.>.H.:XW > ~ 7 3 i.p <.w.L.M.l x i C.",
"U.pX6X8X5X7X4X6X0X$Xg = 1 , n B U G G G n U H G G G m U H K G V G U F H F F { G V ^ n R :.>. .l.:.1 T ! u h ;XeX8X3X_.@XoXoX3.XX",
"8.OXOX5X5X8X4X4X+X$Xg = > 6 B B U G G G n U H G G G m U H K G V G U F H L V { G / B _ ;.8 < = 5 < < ..~ = h kX0X8X7X3X6X@XiX3.R.",
"4.|.OX4X3X8X8X6XeX$Xf = 1 Z n B U G G G n U H G G G m U G K G V G U F H F V { G J B ;.,.r T O.O.< O.,.! t $.kX|.3X7X8X6XoX&X3.R.",
"T.gXpXwX5XfXwXwXaX$Xf 3 r 6 n B U G G G m U H G G G m U G K G V G U F H F V { G V Q ;.;.E  .t E r  .>.T t $.lXwXfX8X5XyXuXiXv.[.",
"z.8.!.K.J.P.K.K.R.s.O 3 T , n G U G G G n U H G G H n { G F G V G ' G H F C { C C ^ ) ,...7 E  .r  .:.T E 0 W.K.P.t.r.I.M.M.j v.",
"T.0.!.K.J.P.P.K.R.N.2 & 1 , n B U G G G n U H G G H n { G F G V G ' G H F C { C C S Z :.@.~ T 1 r ..:.T 7 * Y.E.P.`./.L.M.Q.9.l ",
"vX+XgXpXfXfXfXpXeX%Xg e r Z B C U G H G m ] H G G H n { G F G V G ' G H F C { C B S : _ ;.:.:.;.,.:.) 9 E =.lXeXfXcXjXfX@XzXeXv.",
"vX).4X3X7X7X3X4XeX$Xf = 1 : : n U G G G m ] H G G G n { G F G V G ' G H F C ] F C ( , S ) _ ..;.8 ~ D D 7 &.*X0X9XrX3XyX#X+X0X4.",
"vX|.6X4X7X5X3X6XqX}.4 5 Z Z n J U G G G n U H G G G n { G F G V G ' G H F C ] F n ( V J S B B A n _ ^ ^ 9 =.=X2XrX7X_.yX@X#XeX3.",
"cX|.wX5X7X7X4X6XOXZ.O & 1 ; : C U G G G n U H G G G n { G F G V G ' G H F C ] F n J m / / I I J J _ B 6 6 =.;X+XwXrX5X5X#X@XaX4.",
"vXOXwX3X7X7X4X4XaX$Xf e Z Z n C U G G G n U H G G G n { G F G V G ' G H F C ] F H G n I G F J V : / } I D &.;XeX9XrX8XOX#X6XeX4.",
"vXOX8XOX5X8X5X+XeX$Xf = 1 Z Z B / G J J n / J G J J n ( J G G B G U G G C C ( C G C n | J J / J A / J 6 9 &.tX%X8X9X8X3XuX6XqXq.",
"cXI.8XOXOXfX6X+X X*Xf & r 1 1 Z ) R R Z Z R ) Z R Z Z R Z R R , Z ) Z S Z Z ) R Z S , R R Z R Z , ! ~ T 3 $.,X%X|.pX8X5XpX.XwXq.",
"hXn.yX6XOX4XOX+X&X%Xw O & X $ % < < < < = < < - 5 = = < < 5 < = = 5 = = = = 5 = 5 5 = e r < e < % < = 0 q #.&X|.eX6X(._.hX8X2X5.",
"bX).wX6X6XpX6XwXsX@Xb v X.o.k.H.B.B.k.j.V.D.k.k.k.V.B.k.V.B.k.D.V.k.k.l.B.D.k.j.B.k.V.k.k.k.f.D.F.l.k.f.i.s.lXpXpXe.P.8X4XwXgXq.",
"6Xn.K.K.K.!.L.K.m.n.p y.p.z X.#.i.G.].N.i.y.j.{.A.N.y.i.].}.N.d.u.N.{.A.u.d.s.].{.s.i.s.G.{.N.i.u.f.}.A.s.s L.n.w.i e./.c.R.R.s ",
"k 0.K.K.w.n.r.r.L.w.i l 1.l p.N.i.f.u.X.i.i.u.j.X.i.u.u.f.i.#.i.i.u.j.u.#.f.u.f.u.X.f.i.i.f.#.f.u.p.Z.x.8.a /./.P.!._.(.(.T.1.l ",
"U.aXzXgXfXhXhXfXjX8Xa a j s y.N.N.y.z c V.A.i.v b i.A.N.u.z #.B.A.i.X.c f.A.f.#.z #.V.j.X.z X.N.V.s.a.1.1.8.fXyXjXcXcXpXgXzXW.Y.",
"m.eX|.)..X5X5X_._.OXa p z b v c z v 7.y.c x c 2.y.v v x 2.y.2.z v y.p.7.x z 7.y.p.c z 2.a.p.y.c v c c c 1.m.fX.X7X<X.X4X|.eX|.v.",
"m.gX6XpX8X5X7X8X4XqXp     . . X 2 . o O + O 2 + O o O O o + 2 + + 2 . + O + 2 . + O . O O . O X X = + o   x qX5X7XfX3XwXqXwXY.x.",
"m..X4X3X3X_.3X4X+XoX@ q 0 = > 8 _ S Q R , _ ) S Q S Z _ Q ) Q B S _ S R A Z _ S J R n ) Q Q S S , ~ ~  .q +.iX4X4XfX5XOX6XqX|.x.",
"i T.w.e.J.J.<.0.2.y.. e 7 1 , B U G H L n U H G H G m ' H H H V G U L G F V ] G L L m U H H G G B I R ! e o.*X|.qX.XfX4X8XpXK.m.",
"c.gXOXpXpX5XP.sXiX=X0 r , : n G U G H G n U K G G G m U H H G V G U F G V V { G G H m U K H G G m ' J ^ r *.lX&X4X_.fX5X4XwXL.m.",
"U.6XOXpX).!.!.+X*X=X= < , n m m U G H L n U H G L G m ' L H L V G U L L F V ] G G L m U H H G L F [ H S 8 &.;X{.qXpX7X5X4X+X|.z.",
"m.sX6X!.!.).|.C.}.-X0 < > B m m ' H H H m ' ` H H H N ' H ` H N H ' L H F F [ H H H N ' ` H H H m ' G S T *.,X%XwX3X_.6X6XoX|.z.",
"m.sX^.8.OX6XOX#XC.{.f y ; , m V ' L H H m ' ` L H L N ' H ` H N L ' L H F F [ L H H m ' H H L L M ' F S E $.*X&X4Xw._.8XaXsXU.Z.",
"d a.s s z.n.8.U.s 2.o q r 8 Z B I G G G n U K G G G m U G K G B G U G H F V } G G G m U K G G G V } C D 7 q N.C.e.a e.K.m.U.c b ",
"c oX@XgX+XpXOX|.qX X@ q e > , A ^ G J J n / I G J G B / J I J B G / G J C C } J J J n I J J J G n U C R y f Z.!.!./._.(.U.~.Y.s ",
"U.sX6XqX8XfX8X6X&X$Xf 3 r 8 , B U F G G m U K G G G m / G K G V F U F G F C { F G G m U K G F G B ] C D t g.lXeXwX8X8X8XwX6XsXp.",
"L.6X4X5X5X8X5X3X0X$Xf = 8 6 , B U F G H m P H G G G m U G K G V G U G H F C ] G G H m U H G G G m ] C D r $.kX0X5X5X7X5X4XOX0X8."
};
