/* XPM */
static char *_0e44fb10ce545efb467d3875ed67778[] = {
/* columns rows colors chars-per-pixel */
"64 64 256 2 ",
"   c #01053A",
".  c #1D1A21",
"X  c #0C3D32",
"o  c #163633",
"O  c #141221",
"+  c #144637",
"@  c #13512C",
"#  c #285A35",
"$  c #264B36",
"%  c #2E7B35",
"&  c #1F7528",
"*  c #030349",
"=  c #0A0553",
"-  c #0B1456",
";  c #271C56",
":  c #192B4F",
">  c #213C49",
",  c #2A2757",
"<  c #223955",
"1  c #35385B",
"2  c #2D2B55",
"3  c #2C226C",
"4  c #2C3665",
"5  c #383171",
"6  c #1D1B67",
"7  c #453867",
"8  c #4B3D7B",
"9  c #403A5E",
"0  c #1D4346",
"q  c #1E425A",
"w  c #274A4A",
"e  c #2B4957",
"r  c #35585B",
"t  c #315252",
"y  c #386955",
"u  c #326F4A",
"i  c #3B4963",
"p  c #3B5865",
"a  c #3B4572",
"s  c #2D4966",
"d  c #3C6865",
"f  c #3C6E6B",
"g  c #42575B",
"h  c #42514E",
"j  c #42785C",
"k  c #4E6E58",
"l  c #495969",
"z  c #54566C",
"x  c #47487A",
"c  c #544A7A",
"v  c #485879",
"b  c #565879",
"n  c #484867",
"m  c #615878",
"M  c #476A69",
"N  c #57626A",
"B  c #577567",
"V  c #466376",
"C  c #566779",
"Z  c #4A7775",
"A  c #5A737B",
"S  c #477D64",
"D  c #656B79",
"F  c #3B940E",
"G  c #37942D",
"H  c #3AA925",
"J  c #409C1D",
"K  c #4BA81B",
"L  c #469838",
"P  c #469131",
"I  c #4EAD34",
"U  c #5FCF3B",
"Y  c #64C739",
"T  c #358249",
"R  c #468949",
"E  c #499647",
"W  c #549646",
"Q  c #458657",
"!  c #528956",
"~  c #4A9659",
"^  c #579451",
"/  c #53A449",
"(  c #5CA854",
")  c #58B04C",
"_  c #62A951",
"`  c #69B656",
"'  c #74BB4E",
"]  c #478666",
"[  c #4E9665",
"{  c #5A996A",
"}  c #4F8572",
"|  c #588B77",
" . c #659D62",
".. c #77997B",
"X. c #65947B",
"o. c #57A566",
"O. c #56A472",
"+. c #5EB071",
"@. c #6AB173",
"#. c #639C55",
"$. c #6CC852",
"%. c #77C574",
"&. c #86D76E",
"*. c #98D97E",
"=. c #323E88",
"-. c #453C83",
";. c #494884",
":. c #574C83",
">. c #4D5785",
",. c #545C8B",
"<. c #585986",
"1. c #5A5697",
"2. c #5B4E9D",
"3. c #64568A",
"4. c #675C94",
"5. c #765B9E",
"6. c #576787",
"7. c #577684",
"8. c #5C6692",
"9. c #65638B",
"0. c #696889",
"q. c #667587",
"w. c #676796",
"e. c #73699B",
"r. c #6B7698",
"t. c #767A99",
"y. c #746F8B",
"u. c #5F67A0",
"i. c #746DA9",
"p. c #564EA3",
"a. c #807ABA",
"s. c #5C8984",
"d. c #5A9486",
"f. c #679A86",
"g. c #708B91",
"h. c #5EA180",
"j. c #67A488",
"k. c #79A59B",
"l. c #71AE8E",
"z. c #7289A9",
"x. c #79ACA7",
"c. c #76C98D",
"v. c #85999B",
"b. c #858D93",
"n. c #8DBD85",
"m. c #84B599",
"M. c #8CAD99",
"N. c #9595AC",
"B. c #8B93AC",
"V. c #A295BE",
"C. c #95AAA7",
"Z. c #84B3A8",
"A. c #97B4AA",
"S. c #9AABB6",
"D. c #97BABA",
"F. c #8BA9AE",
"G. c #A9B6B6",
"H. c #AEAFB5",
"J. c #8AD79C",
"K. c #8FD395",
"L. c #A6DA96",
"P. c #A8CF9B",
"I. c #91E39D",
"U. c #ABEF8E",
"Y. c #8BC8A7",
"T. c #96CABA",
"R. c #99DAB9",
"E. c #8FCEAC",
"W. c #B2D3B5",
"Q. c #8EE8A7",
"!. c #97E9AC",
"~. c #8DF6A4",
"^. c #93F3AC",
"/. c #96FFAD",
"(. c #9BFFAE",
"). c #9CF8A8",
"_. c #99E8B5",
"`. c #9BF4B4",
"'. c #9DFFB4",
"]. c #9DF3BA",
"[. c #9FFFB8",
"{. c #95FAB7",
"}. c #A3F6AB",
"|. c #A5E9BA",
" X c #A1FEB6",
".X c #A4F4BB",
"XX c #A2FDBB",
"oX c #AAFDBC",
"OX c #A7F9B6",
"+X c #B1FCBE",
"@X c #B4EFAC",
"#X c #CAC3BD",
"$X c #989ACA",
"%X c #B6B5C7",
"&X c #ACB4CF",
"*X c #A7A6DA",
"=X c #C6BED9",
"-X c #9CCBCB",
";X c #A4D8C8",
":X c #B5D9C8",
">X c #BCD8D6",
",X c #B1CACC",
"<X c #9DE8C3",
"1X c #9EFBC4",
"2X c #A9ECCB",
"3X c #A6E7C5",
"4X c #A5F3C3",
"5X c #A9F5C5",
"6X c #A4FBC3",
"7X c #AAFDC4",
"8X c #ABF3CB",
"9X c #A6FAC9",
"0X c #ACFECB",
"qX c #A7F2C9",
"wX c #B3FECC",
"eX c #B3F9CA",
"rX c #ADE9D9",
"tX c #B8ECD9",
"yX c #AAF6D4",
"uX c #B2F1D3",
"iX c #B5FED4",
"pX c #BBFFD4",
"aX c #B8FADA",
"sX c #B1EBCA",
"dX c #BBF9E4",
"fX c #B2E9E4",
"gX c #CCCECC",
"hX c #C5FCDC",
"jX c #D0EFD3",
"kX c #CACEE5",
"lX c #C7D7E4",
"zX c #D6D7E6",
"xX c #CBD0FF",
"cX c #E5D9F7",
"vX c #CCE6E6",
"bX c #D8E2E6",
"nX c #CDFAE7",
"mX c #D9FBF5",
"MX c #D7FBE7",
"NX c #E4EBEA",
"BX c #E7FBEB",
"VX c #F6F8ED",
"CX c #E9ECF9",
"ZX c #FCEDFE",
"AX c #F2EAFA",
"SX c #EBF4F5",
"DX c #ECF3FD",
"FX c #ECFDFD",
"GX c #E6FAF4",
"HX c #FDFEF4",
"JX c #F3F5FD",
"KX c #FDF5FF",
"LX c #F4FDFE",
"PX c #FDFDFE",
"IX c #F6F8F4",
"UX c #F4EBEC",
/* pixels */
"[.[.[.[.[.[.[.[.[.[.[.[.[.[.[.XX9X9X6X[.[.'.'.[.[.XX6X6X6X6X6XXXXXoXXX9X5X9X9X6X[.[.[.[.[.XXXXXXXX[.[.[.[.[.[.[.[.[.[.[.[.[.[.[.",
"[.[.[.[.[.[.[.[.[.[.[.[.[.[.[.XX6X6XXX[.'.'.'.'.[.XXXXXX6XXX[.[. X XOXXX6X6X6X1X[.[.'.'.[.[.XXXXXX[.[.[.[.[.[.[.[.[.[.[.[.[.[.[.",
"[.[.[.[.[.[.[.[.[.[.[.[.[.[.[.XXXXXX[.[.'.'.'.'.[.[.XXXXXX[.[.[.'.'. XXXXXXX[.[.'.'.'.'.'.[.[. X[.[.[.[.[.[.[.[.[.[.[.[.[.[.[.[.",
"[.[.[.[.[.[.[.[.[.[.[.[.[.[.[.[.XX X[.'.'.(.(.'.'.[.[.[.[.[.'.'.(.(. X XXXXX[.[.'.'.'.(.(.'.'.'.[.[.[.[.[.[.[.[.[.[.[.[.[.[.[.[.",
"[.[.[.[.[.[.[.[.[.[.[.[.[.[.[.[.'.'.(.(.(.(.(.(.'.'.'.'.'.(.(.(.'.'. X X X X X X'.'.'.(.(.(.(.(.[.[.[.[.[.[.[.[.[.[.[.[.[.[.[.[.",
"[.[.[.[.[.[.[.[.[.[.[.[.[.[.[.[.(.(.(.(.'.'.'.'.'.'.'.(.(.(.(.(.'. X X X X XXXXXXXXX X[.'.'.(.'.[.[.[.[.[.[.[.[.[.[.[.[.[.[.[.[.",
"[.[.[.[.[.[.[.[.[.[.[.[.[.[.[.[.(.(.(.'.XXXXXXXX X[.[.'.'.'.'.'. XOX X XXXXXXXXX5X5X6X6XXXXX[.[.[.[.[.[.[.[.[.[.[.[.[.[.[.[.[.[.",
"[.[.[.[.[.[.[.[.[.[.[.[.[.[.[.[.'.(.[.XX6X5X5X5X6XXXXX[.[.[. XXX.X4X.X.X4X4XqX8XuXuXuX8X8X5X6XXX[.[.[.[.[.[.[.[.[.[.[.[.[.[.[.[.",
"[.[.[.[.[.[.[.[.[.[.[.[.[.[.[.[.~.XX0X_.iXuXuXaX8X4X0X!.6XoX7X5XsXsXQ X.hXuXtXtXZ.Z M s.T.uXqX6XXX[.[.[.[.[.[.[.[.[.[.[.[.[.[.[.",
"[.[.[.[.[.[.[.[.[.[.[.[.[.[.[.[.7X^.].aXtXT.k.k.T.2X8X_.pX5X|.uXT.| mXtXj Z.D.M > i C p 0 x.yX<XXX[.[.[.[.[.[.[.[.[.[.[.[.[.[.[.",
"[.[.[.[.[.[.[.[.[.[.[.[.[.[.[.[.^.].aXY.d e e p r } 3XnX3Xm.m.X.C.bXFX>XT.vXlX,Xb w.b v 7.t T.aX6X[.[.[.[.[.[.[.[.[.[.[.[.[.[.[.",
"[.[.[.[.[.[.[.[.[.[.[.[.[.[.[.[.XX0XuXd p v r.6.V r | l.f.m.nXGXDXPXSXLXLXGXFXB.1 e.c r.6.e d.dX6X[.[.[.[.[.[.[.[.[.[.[.[.[.[.[.",
"[.[.[.[.[.[.[.[.[.[.[.[.[.[.[.XX7X_.f.0 0.w.w.<.C A r k.mXFXFXPXPXPXJXLXLXSX%X%Xy.7 e.b 7.r j.<XXX[.[.[.[.[.[.[.[.[.[.[.[.[.[.[.",
"[.[.[.[.[.[.[.[.[.[.[.[.[.[.[.XX7XeXS l 9.4.:.4.9.A g G.LXLXSXAXPXZXPXIXIXPXJXPXKX*X7 9.q.r l.5XXX[.[.[.[.[.[.[.[.[.[.[.[.[.[.[.",
"[.[.[.[.[.[.[.[.[.[.[.[.[.[.[.XX`.5Xt l <.5.5.3.9.z N gXNXIXPXPXKXPXHXHXHXVXPXKXZXKXV.9 l t 2XiXXX[.[.[.[.[.[.[.[.[.[.[.[.[.[.[.",
"[.[.[.[.[.[.[.[.[.[.[.[.[.[.[.XXoX4Xy A 9.c i.3.b D y.SXPXPXKXZXPXPXHXHXHXHXPXPXKXZXKXy.g T.aX].XX[.[.[.[.[.[.[.[.[.[.[.[.[.[.[.",
"[.[.[.[.[.[.[.[.[.[.[.[.[.[.[.[.oX_.l.0 6.8.<.9.b z ,XPXPXPXKXAXPXPXPXPXPXPXPXCXn N.PXkXv.;XyX9XXX[.[.[.[.[.[.[.[.[.[.[.[.[.[.[.",
"[.[.[.[.[.[.[.[.[.[.[.[.[.[.[.[.{.iXR.d i v b b l g.LXLXJXPXz . NXIXPXPXKXKXPXPXy.t.JXLXg.hX3X1X[.[.[.[.[.[.[.[.[.[.[.[.[.[.[.[.",
"[.[.[.[.[.[.[.[.[.[.[.[.[.[.[.[.^.7XiX;Xg.l n z b.NXPXPXLXzXz b.SXPXHXHXHXPXPXJXLXJXLXPXC.E.4X6X[.[.[.[.[.[.[.[.[.[.[.[.[.[.[.[.",
"[.[.[.[.[.[.[.[.[.[.[.[.[.[.[.[.oXQ.5XnX>Xg.H.zXCXPXSXPXSXPXPXPXLXLXVXVXVXHXPXDXS.B.%XPX:Xj.hXQ.XX[.[.[.[.[.[.[.[.[.[.[.[.[.[.[.",
"[.[.[.[.[.[.[.[.[.[.[.[.[.[.[.[.XX~.oX3X:XC.PXPXPXPXPXPXPXzXt.0.g.%XIXHXHXHXIXC.1 1 c t.vXm.|.7X X[.[.[.[.[.[.[.[.[.[.[.[.[.[.[.",
"[.[.[.[.[.[.[.[.[.[.[.[.[.[.[.[.~./.wX.XW.v.PXNXHXHXIXJXzXt.b ,.a r.%XPXIXHXLXq.1 ,   c S.M.eX`.XX[.[.[.[.[.[.[.[.[.[.[.[.[.[.[.",
"[.[.[.[.[.[.[.[.[.[.[.[.[.[.[.[.'./.oXeX|...HXHXHXVXPXJXm n 8.  6 4 B.KXPXPXJXn $X*X= 3 t.s.2XwXXX[.[.[.[.[.[.[.[.[.[.[.[.[.[.[.",
"[.[.[.[.[.[.[.[.[.[.[.[.[.[.[.[.{.{.^.wX|...VXHXHXUXPX=Xb <.5 *X- - w.KXJXPXPX<.;.p.6 3 8.g.;X6XXX[.[.[.[.[.[.[.[.[.[.[.[.[.[.[.",
"[.[.[.[.[.[.[.[.[.[.[.[.[.[.[.[.{.{.[.wX|...NXHXHXKXKX%Xb x a xX=.* <.AXPXzX%X*X* = * -.i.F.x.0XXX[.[.[.[.[.[.[.[.[.[.[.[.[.[.[.",
"[.[.[.[.[.[.[.[.[.[.[.[.[.[.[.[.{.6X`..X|.l.IXBXPXPXKXN.n w.:   * - t.PXAX. O kXxXi.2.i.&XvXj..XXX[.[.[.[.[.[.[.[.[.[.[.[.[.[.[.",
"[.[.[.[.[.[.[.[.[.[.[.[.[.[.[.[.6X{.0X9XpX] GXLXIXKXPXkXm r.v : : v kXPXHXgXbXDXPXJXKXPXFXvX{ wXXX[.[.[.[.[.[.[.[.[.[.[.[.[.[.[.",
"[.[.[.[.[.[.[.[.[.[.[.[.[.[.[.[.6X].0X].iXj.:XGXPXJXPXPXN.y.z.B.&XLXPXH.HXHXIXPXJXPXAXJXLXm.l.`.XX[.[.[.[.[.[.[.[.[.[.[.[.[.[.[.",
"[.[.[.[.[.[.[.[.[.[.[.[.[.[.[.[.6X6X0X0X4XR.X.FXFXLXZXPXJXJXPXLXLXDXIX#XgXgXHXPXPXJXPXCXLX} .X7XXX[.[.[.[.[.[.[.[.[.[.[.[.[.[.[.",
"[.[.[.[.[.[.[.[.[.[.[.[.[.[.[.XX0X0X0Xc.9X_.X.:XFXPXPXKXPXPXPXSXLXLXPXHXHXHXPXNXLXDXPXPXB m.iX].[.[.[.[.[.[.[.[.[.[.[.[.[.[.[.[.",
"[.[.[.[.[.[.[.[.[.[.[.[.[.[.[.XX6X].j.& 9XiX3XB gXNXPXPXPXIXHXHXSXPXPXKXPXKXJXPXDXCX%Xh A.tXyX9X[.[.[.[.[.[.[.[.[.[.[.[.[.[.[.[.",
"[.[.[.[.[.[.[.[.[.XXXXXXXXXXXXXX4XJ.@ c.pXQ.pX3XX.v.bXPXPXPXHXPXPXPXPXPXPXPXJXCXB.z z z l x.rXyX6X[.[.[.[.[.[.[.[.[.[.[.[.[.[.[.",
"[.[.[.[.[.[.[.[.`.0XiX.X7X.XwX.X_.[ u K.}.OX}.5XtXA.q.0.V.=XcXcXCXCXDXkX&XB.6., 1 9.3.e.,.v z.fX9X[.[.[.[.[.[.[.[.[.[.[.[.[.[.[.",
"[.[.[.[.[.[.[.[.0XQ.].+.O..X!.hXE.j Q @.).OXoX.Xf.A v 4 x 7 c m y.0.0.<.v a x :.x 3.3.c <.,.s -X5X[.[.[.[.[.[.[.[.[.[.[.[.[.[.[.",
"[.[.[.[.[.[.[.[.XX`.iX_.T ~ o.+.l.] # J.pX_.E.y d V >.w.w.w.0.0.b 9.8.>.>.w.w.;., c :.x <.C < k.5X[.[.[.[.[.[.[.[.[.[.[.[.[.[.[.",
"[.[.[.[.[.[.[.[.7X6X_.6Xc.[ O.[ j + ] 3XuXtXf Z 6.6.8.w.,.b l l b i 1 ,.8.>.x :.; 5 ; 2 2 i V Z 5X[.[.[.[.[.[.[.[.[.[.[.[.[.[.[.",
"[.[.[.[.[.[.[.[.!.6X7X`.wXJ.~ Q } d | ;XtX-Xe 6.u.1.u.4 s o M B B D v.S.S.z.<.x ;.8 5 ;.x v V f 5X[.[.[.[.[.[.[.[.[.[.[.[.[.[.[.",
"[.[.[.[.[.[.[.[.XX6XwX.X7XoXpXJ.Y.Y.# y k.r 6.,.1.1.>.r.C A.P.@XW.jXjXM.S.&XV.:.;.;.,.,.6.v q x.9X[.[.[.[.[.[.[.[.[.[.[.[.[.[.[.",
"[.[.[.[.[.[.[.[.7X^.!.7XOX!.J.R E #.@.@.m.w N 0.b 0.t C.! @X&.&.U.*.L.P.MX>X&Xw.a x x 4 < s f rX9X[.[.[.[.[.[.[.[.[.[.[.[.[.[.[.",
"[.[.[.[.[.[.[.[.oXXXwX!.wXoXT I.@XU.}.jXK.$ l N z z k ..P $.$.Y ' ' L.P.BXvXlXB.6.r.8.s.7.x.rXaX6X[.[.[.[.[.[.[.[.[.[.[.[.[.[.[.",
"[.[.[.[.[.[.[.[.XX`.XXXXoXc.o.}.*.&.&.I.{ t r A C g k j / $.U U ' ` L.P.MXBXvXv.B.F.mXrXuXwXoXXXXX[.[.[.[.[.[.[.[.[.[.[.[.[.[.[.",
"[.[.[.[.[.[.[.[.XX XoXOXOXo.o.%.$.) $.%.Q X.t g A k @ ! L G I H I _ L.n.BXFX,Xv.F.k.tXuX7X}.).).'.[.[.[.[.[.[.[.[.[.[.[.[.[.[.[.",
"[.[.[.[.[.[.[.[.`. XXXoXoX+.@.@.$.$.$.` R { u X $ $ #  .E ) G H L _ @Xn.W.jXA.v.>Xk.R.eXoX).).).'.[.[.[.[.[.[.[.[.[.[.[.[.[.[.[.",
"[.[.[.[.[.[.[.[.XXoX X}.OX+.~ / J I I L ( G @.u # # R ! % / G I L P L.P.M.W.G.g.mXk.3XqXoX[. X(.'.[.[.[.[.[.[.[.[.[.[.[.[.[.[.[.",
"[.[.[.[.[.[.[.[. XoX^. XOXc.% / K K K J ) & _ E P #.W _ W L ` W W R n.W.W.H.N.i D.s.dX<X1X1X[./.[.[.[.[.[.[.[.[.[.[.[.[.[.[.[.[.",
"[.[.[.[.[.[.[.[.`.XX).oX+X}.E ( J F F J I / L ( #.W ^  . .! ! Q ! ! # h N z m z l d fXyX9X1X'./.[.[.[.[.[.[.[.[.[.[.[.[.[.[.[.[.",
"[.[.[.[.[.[.[.[. XXX}.oX}.}.@.E _ L / E ~ o.% T { u j y w r 0 p w M l b 9.3.3.w.i p k.yX9X[.(.(.[.[.[.[.[.[.[.[.[.[.[.[.[.[.[.[.",
"[.[.[.[.[.[.XX[.XX X XoX).+X+Xo.% E ~ u O.O.O.] + d r V < a ;.;.8.>.w.9.:.4.4.<.w.v t ;XqXXX'. X[.[.[.[.[.[.[.[.[.[.[.[.[.[.[.[.",
"[.[.[.[.[.[.[.[.[.XXXX X X X X XI.J.!..XiX2XnXZ.e 7.8.8.1.-.5 2.1.;.1.w.>.<.w.4.<.e.v l -XR.wX^.[.[.[.[.[.[.[.[.[.[.[.[.[.[.[.[.",
"[.[.[.[.[.[.[.[.[.[.[.[.[.[.[.[.{.`.XX.XiX2XtX| d 6.>.;.1.1.5 3 5 ;.x a v 6.6.c e.8 3.<.e y 0X7XXX[.[.[.[.[.[.[.[.[.[.[.[.[.[.[.",
"[.[.[.[.[.[.[.[.[.[.[.[.[.[.[.[.XXoXoX`.0XqX<Xy d r e s v ,.,.>.4 < : > p t i t.3.e.4.6.q.X ] 6XXX[.[.[.[.[.[.[.[.[.[.[.[.[.[.[.",
"[.[.[.[.[.[.[.[.[.[.[.[.[.[.[.[.'.[.XX`.6X5X<X] + X r 7.V < > < e r s.-XrXs.w i b 9.w.6.p X h.iXXX[.[.[.[.[.[.[.[.[.[.[.[.[.[.[.",
"[.[.[.[.[.[.[.[.[.[.[.[.[.[.[.[././.[.'.XX6X0XJ.u ] Y.dX;XZ.Z.Z.T.T.3XiXaX3Xf.w 7.C 6.i w s.uX4XXX[.[.[.[.[.[.[.[.[.[.[.[.[.[.[.",
"[.[.[.[.[.[.[.[.[.[.[.[.[.[.[.[.[./.'.[.'.'.6X7X0X5XiXiXqXuXaX2XqX5X0X6X].pX|.} + w > p D.tXyX5XXX[.[.[.[.[.[.[.[.[.[.[.[.[.[.[.",
"[.[.[.[.[.[.[.[.[.[.[.[.[.[.[.[.[./.'.'.'.'.[.XX`.`.`._.`.0XwX].].XXXX{.{.6XwXqXY.Z.T.tXaX2X4X0XXX[.[.[.[.[.[.[.[.[.[.[.[.[.[.[.",
"[.[.[.[.[.[.[.[.[.[.[.[.[.[.[.[.XX'.[.[.[.oX'.[.XXXXoXoXXX`.{.XX{.oX(.^.XXXX`.0XqXuXaXuXqX0X6X`.[.[.[.[.[.[.[.[.[.[.[.[.[.[.[.[.",
"[.[.[.[.[.[.[.[.[.[.[.[.[.[.[.[.XXXXXXXXXXXX X[.[.[.[.[.'.'.'.'.[.[.'.'.[.[.XXXX5X5X5X6XXX[.[.'.[.[.[.[.[.[.[.[.[.[.[.[.[.[.[.[.",
"[.[.[.[.[.[.[.[.[.[.[.[.[.[.[.XXXXXXXXXXXXXXXX X X[.[.'.'.'.'.'.[. X[.[.[.[.XXXXXXXXXX[.[.'.(.(.[.[.[.[.[.[.[.[.[.[.[.[.[.[.[.[.",
"[.[.[.[.[.[.[.[.[.[.[.[.[.[.[.XXXXXXXXXXOXXXXX XXX X X X X'.'.'. X XXXXXXXXXXX[.[.[.[.'.(.(././.[.[.[.[.[.[.[.[.[.[.[.[.[.[.[.[.",
"[.[.[.[.[.[.[.[.[.[.[.[.[.[.[.XXXXXXXXXXXXXXXXXX XXX X X X X[. X X XXXXXXXXXXX[.[.'.'.(.(././.(.[.[.[.[.[.[.[.[.[.[.[.[.[.[.[.[.",
"[.[.[.[.[.[.[.[.[.[.[.[.[.[.[.XXXXXXXXXXXXXX X X X XXXXXXX X X X X XXXXXXXXXXX[.[.'.'.(.(.(.(.'.[.[.[.[.[.[.[.[.[.[.[.[.[.[.[.[.",
"[.[.[.[.[.[.[.[.[.[.[.[.[.[.[.[. X X X X[.[.[.[. X XXXXXXXXX X[.[.[.XXXXXXXXXXXX[.[.'.'. X XOXOXXX[.[.[.[.[.[.[.[.[.[.[.[.[.[.[.",
"[.[.[.[.[.[.[.[.[.[.[.[.[.[.[.[.'.'.[.'.'.'.[.[.[.[.[.[.[.[.XX[.'.'.[.[.XXXXXXXX[.[.[. XOXOXoXoXXX[.[.[.[.[.[.[.[.[.[.[.[.[.[.[.",
"[.[.[.[.[.[.[.[.[.[.[.[.[.[.[.[.'.'.'.'.'.'.[.[.[.[.[.[.[.[.XX[.'.(.[.[.XXXXXXXXXX[. X XOXoX+X+XOX[.[.[.[.[.[.[.[.[.[.[.[.[.[.[."
};
