/* XPM */
static char *_c108ceedd7e462d948b8dfa8aad37f4[] = {
/* columns rows colors chars-per-pixel */
"64 64 154 2 ",
"   c #64564D",
".  c #65594F",
"X  c #675A51",
"o  c #6B5D54",
"O  c #6E6156",
"+  c #6E6259",
"@  c #706257",
"#  c #73655C",
"$  c #78675F",
"%  c #76685F",
"&  c #786A5F",
"*  c #766A61",
"=  c #7A6D63",
"-  c #796E68",
";  c #7D7067",
":  c #7E7269",
">  c #806D66",
",  c #817267",
"<  c #83756C",
"1  c #88756E",
"2  c #86786F",
"3  c #887A6F",
"4  c #867770",
"5  c #877971",
"6  c #8A7C73",
"7  c #917E77",
"8  c #8D8077",
"9  c #8E8279",
"0  c #908277",
"q  c #92857C",
"w  c #96887F",
"e  c #988A7F",
"r  c #938781",
"t  c #9A8780",
"y  c #968A81",
"u  c #9B8D84",
"i  c #9B8F88",
"p  c #9D9087",
"a  c #9E9289",
"s  c #A18E87",
"d  c #A28F88",
"f  c #A09287",
"g  c #A3958C",
"h  c #A9968F",
"j  c #A6988F",
"k  c #A89A8F",
"l  c #A49790",
"z  c #AA9790",
"x  c #A69A91",
"c  c #AA9D93",
"v  c #AA9F99",
"b  c #B09E97",
"n  c #B29F98",
"m  c #AEA097",
"M  c #AFA29A",
"N  c #AEA198",
"B  c #AEA49A",
"V  c #AFA59B",
"C  c #AEA299",
"Z  c #B0A297",
"A  c #B0A297",
"S  c #B1A398",
"D  c #B0A299",
"F  c #B0A39A",
"G  c #B2A499",
"H  c #B1A49B",
"J  c #B3A59A",
"K  c #B2A49B",
"L  c #B4A69B",
"P  c #B1A49C",
"I  c #B3A59C",
"U  c #B2A59C",
"Y  c #B5A79C",
"T  c #B4A69D",
"R  c #B4A79E",
"E  c #B5A79E",
"W  c #B4A79F",
"Q  c #B2A49B",
"!  c #B8A79F",
"~  c #B3A99F",
"^  c #B6A89D",
"/  c #B5A89F",
"(  c #B7A99E",
")  c #B6A89F",
"_  c #B5A89E",
"`  c #B6A7A0",
"'  c #B5A8A0",
"]  c #B7A9A0",
"[  c #B6A9A0",
"{  c #B4AAA0",
"}  c #B6ACA2",
"|  c #B6A9A1",
" . c #B8AAA1",
".. c #B9ABA0",
"X. c #B9ABA2",
"o. c #B8ABA3",
"O. c #BAACA1",
"+. c #BBADA2",
"@. c #BAACA3",
"#. c #BCAEA3",
"$. c #BBADA4",
"%. c #B8AEA4",
"&. c #BBAEA5",
"*. c #BBAEA6",
"=. c #BDAFA4",
"-. c #BCAEA5",
";. c #BCAFA6",
":. c #BDAFA6",
">. c #BCAFA7",
",. c #BAACA3",
"<. c #BBB1A7",
"1. c #BDB0A7",
"2. c #BFB1A6",
"3. c #BEB0A7",
"4. c #BEB0A7",
"5. c #BDB0A8",
"6. c #BEB1A8",
"7. c #BFB1A8",
"8. c #BFB5AB",
"9. c #BEB1A9",
"0. c #C0B2A7",
"q. c #C1B3A8",
"w. c #C0B3AA",
"e. c #C1B3AA",
"r. c #C0B3AB",
"t. c #C2B4A9",
"y. c #C3B5AA",
"u. c #C2B4AB",
"i. c #C1B4AC",
"p. c #C3B5AC",
"a. c #C0B6AC",
"s. c #C3B6AD",
"d. c #C4B6AD",
"f. c #C4B7AE",
"g. c #C5B7AE",
"h. c #C2B4AB",
"j. c #C8B7AF",
"k. c #C2B8AE",
"l. c #C6B8AD",
"z. c #C5B8AF",
"x. c #C7B9AE",
"c. c #C6B8AF",
"v. c #C6B8AF",
"b. c #C2B7B1",
"n. c #C6B9B0",
"m. c #C7B9B0",
"M. c #C9BBB0",
"N. c #C9BBB2",
"B. c #CABCB1",
"V. c #CABCB3",
"C. c #CBBDB4",
"Z. c #C9BCB3",
"A. c #CDC0B7",
"S. c #DACCC1",
/* pixels */
"j u.p.3.g.g.j 9  .v ) @.u.c q w.p.V p.k.} 9 3.8.g.z.V.$.w ) -.]  .L ) < M.x.V.S.) u.6 c #.z.#.#.z.q g z.] ] w.u.y i z.-.z.C.M.v ",
"i @.c v j D 6 = j y g i y a * N u j a N y ; R c a c c l # g j c g c g % Z u c m k K # i @.j D j m % f j j c D I 9 q  .c c m K u ",
"K K j ; i a m c c K < j m ] c ] I 6 g 8.V l u m 6 6 m l c R R q e V.m @.@.m q 8 z.L c g K e 3 k l p N K c 2 g.I  .8.v c * c a l ",
"c j j % f u I c g m % a D c l l N = j <.] m u ~ 5 : c u c c c , 2 ) g L v c 6 < z.Z c g j u , c c j a c i # R g m ) g j + j w p ",
"f -.] 3.$.-.q 2 ) c ) v N j < K v ~ } ~ a : $.m R ) R N ; j c D c g D & c g L K m @.& k 0.#.u.0.g.6 q y u j i j 2 6 -.c ) K R y ",
"w v v c K c 6 * c a j g D u 2 c l a m g y = c g c j c f : u j j c p m % g g k g u c # p c L m R  .6 2 y q y q a : 2 c i g l v q ",
"v j l = c y N l g c # y N a x l c + a C %.} N n.6 = g q l g c 2 e Z c m k ) q < K c m c g g , L v ] f R j = D c c K j c = D c N ",
"c g y # q q g l l c + 2 q a y a c : w c l m l c < * y q y f j 6 6 Z g Z k c e = k g j c c 6 = j u j v j p * g i i v l m , D l N ",
"q g v c v l 5 5 p.] 8.8.8.' = a p a C p w 5 8.N v y R c , c v m c g c % m c m c g K = w j Z c k  .6 q c R g j N 6 i u.] u.-.v q ",
"* q q i u N 5 5 I c $.$.] x * g u l g V w = -.$.c f y g # f c c k k f @ j u K j g L = p K u k f c = u a c c j R = 6 R y D g c q ",
"l v v - i l x a a a * l v r l C } 8 p ~ N ] D $.q y I @.D c -.q q y.c L ) ) y = u u g p g 6 < c m D D  .j , l j f j g 8 * u g c ",
"a a c + i i C c B V : C V i %.<.8.: u c m } l I 2 6 R N I g N 2 < ) j K m R 6 O q q g i p w < ) c D j K y X y 9 c N j i * j j v ",
"6 l v C v { r r b.v C.8.l a * l a a a l 9 . c v R c c p * c j v c c L # c c #.) c 0.< Z w.@.0.#.I , u g N v j I , 2 R j N v I q ",
"9 a c a l a 4 : V a { v i i + 9 p y V m a ; m l j p N y ; l u g k g ) = c j c m k L = p c v f f g = 6 p c a j N 6 6 D j g m K q ",
"x l V - v x o.C l C * 9 l i l a m = c m $.p.c l 5 q M.D u.R D 9 e @.( 3.#.@.6 6 ( m m c j c < v j v a ] j # c f v c g j # c c j ",
"l c x * a B ' a x I + = r 9 i a a = 9 c j m c K : q c j D c v 6 6 K p Z m g 6 2 c j g c L w < j p l c c q # i y i y j i * i l i ",
"a m ' I  .I q 9 g.N g.@.' y = ] m l ] c u ; N l c c D v * I j I c v N # j j I N g K # y j c l j S 2 < p q g g c 2 q ] K c  .N q ",
"y D c c g R 6 2 j i v v j f * K c l u c q + f w f c u j # l j j c g j o j j c i l c # 6 f q p j g # 0 e q u q p = 5 ] g c c N q ",
"] ] D : i j v j j  .= c R K ] 3.] 5 9 l g v l N < 9 c l l f R 6 5 v c j j I 6 5 w.v 8.c m a , ] ) m ) 3.j = N D c I K l < v N I ",
"m l c O q q g i f m o y v j m v c + 5 9 y c u c * , c p g u v 2 = j l c f D 2 6 N f @.c l p # c j c j ) p o c l l D g g # l g c ",
"q j c c j v 5 5 R f @.v I D < R ] K N I g = K j D D c N * @.c ]  .m K = @.R g.-.f N o w l p c c g = u m m K l m < 8 ] c v N I u ",
"< q i u j g 6 6 R i N p c f = c c g K c g : m j j g c l # I f v c g j # j f m v j I O w p a g c j ; 8 g j c v c : 6 c g u g a 9 ",
"c p c * m l  .D K R % 6 f w g g j # g g c I l I 6 6 -.m m D K q < j j f u j 2 9 w. .p.3.R R 6 w.@.c e m j = 8.N N ] l c * j u l ",
"D c j = j K ) c c  .# 6 q i f a c : u $.] I c D 2 q N m N c ) 6 : u w y u c , 2 R l w.$.-.j 2 3.3.f j g c ; ] c c N c g * u u l ",
"u g I K D ] f 6 3.R c f D y ; D g N j N u : u.R 3.A.8.8.= a c ] K g f # D m ) N l D # q g v j j B ; w ( S K N ] 6 5 a a u j g y ",
"q m l c l R 6 6 n.R c u g c # j l c p m w # N c l $.R @.# 9 q y y g N # f u l g j D # q j 8 g f j O a p g m j N < , l q y q u 6 ",
"m  .N < D D v  .D ] = i I 8.c D D < c I ) I m @.y u w.-.-.K K 5 6 -.w.D c  .q 6 R N v g j 6 5 ] c g ( L c 2 ] N N I N l < c v N ",
"c c c # c g c v f D = p c j j v v * j c N I l K 5 < l g I v I 2 8 R c j g  .5 = c f c g f 8 % c g g j c u # c g f m g a * v l c ",
"p D R ) v  .q * f y N j a y 2 p.3.u.j R u #  .l N @.g m o a j N K j l # m j D l l ) = K g.m j u m ; q w p c y m , q 8.N I -.$.u ",
"y f D c j D w % y 2 q w f q 6 ) I I u c q # I g l ) l m o q y a f i j * v f l g g v = D 3.R u y m 2 6 u u p 9 g : q I v l ] N q ",
"D c R : D N 8.m w. .< c -.c R c ] 5 j c R  .I ] 8 y 3.I c a c 6 q R I D K w.q q ] v I $.) m 2 ) K 3.j K g = a p a c a l * N g c ",
"g v g # g c c v K v ; p f m j j R = u c N c j N 6 u n.@.l i N y 6 D c u i R 6 2 R c z K R 6 , R f k c w q O 8 8 y f a u * a f l ",
"5 u u g g v , = m j c c c q 5 3.] c ~ B c < c c N j ) f , w.m u.j.D h # b j b b h  .= q s n c z R 6 y ] R R ) $.6 a g.R p.@.c y ",
"* 6 6 y y c : = y q f p y i # c l c u C i * l g l c f g # D p j D h h # h i c z d n # t n i b z g = l c K R v m q 6 D j v v c 6 ",
"v j D 5 @.R g.w.j N , j I -.v ) N 8 u m c { K 8.9 g ) ) m ) K 8 q ! J b v  .6 6 ! D R  .w.i 6 z c c R I c 6 g. .c f a D # l v N ",
"g y g + j i D c l m # u N c c l c : a l c ~ a N = 8 D c m m Z 6 , j j j f I , = R j v m J y $ j l l p j y # w. .c c g K o y q i ",
"y D v I v 3.0 6 R l ] m N g = c I V V $.c + u q a j f f % K j Z v c I = @.) p.] c c . p  .v R ] D : w j c ) K 3.q q $.D z.R c q ",
"6 f i p i v < * c i j p j q : c l y j j p o q q y u f q # g u f j a j # N c N j p a X u c c a l v < 6 c j g i g = 6 c i I N l u ",
"c j D ; v l R c c v # q j q g j c * g g N N g I 2 q  .c m c K 0 2 a u a g m : ; ~ c V ~ N l = c I R j 3.g # c u l $.N c % c f m ",
"c j D ; v c R c m R ; q y f 8 q a : y I B C a l * y f v c j L 2 ; p g c c V 6 9 } N c m N 8 < N j j D m p # f q f j j c # R R c ",
"6 f c g c D q 8 ] v I R  .i 6 @.N c B c l 6 p.~ c a f k , 0.v ) ) j I * m I ~ 8.$.] 5 y I } V N  .2 u R c  .-.-.6 5 D c c l K f ",
"8 j f g u c < , c a v c g j * c l c i I a : 8.) c c i c ; K c c D m V < ~ l m g l m # p ] l c g N o f N D D c $.2 = f q u g c 6 ",
" .I D 6 c N ) R I  .< j D @.c I N 8 p $.V B I @.6 y ) Z Z k @.6 q 8.I 3.] D q 2 I c c D V j 2 D N j @.K f < ] c c I c c * R K D ",
"D j c = c c ] D c D # u c j j j g = u c l c g m : 6 K g k g K 2 2 c i c l N 5 : v g v l g p = D j v m c q # v y f v f c # v j v ",
"w c c c m  .6 = j i K c c y # g c N c I a = p.$.$. .c v * 0.K @.p.l c + R R ! N v R 2 j  .N !  .) ; f ]  . .j -.2 * f y c j c 2 ",
"q g l a v m 6 = u y j g c 9 = g l a l g u = ] N N a u y o Z i c J j ! # h h i j c b 1 y v z c R D 6 y D v m g I 6 = u q y y g q ",
"] v ) 2 ] N w. .c R , g  .l I I D : c c B B v I 6 = f e p f g 6 2 c R n h z 1 7 O.c ! c z c 1 -.D p.D D p < I c D ) v I * c m 3.",
"v l j = f l D K j m = w f c u f v < q ~ N c v R < * 8 e f w j 2 # y 6 u h z 7 < z g g D v y > b g j D c f * g c g m c c * c g a ",
"a -.z.D D R q : N l l N R q 6  .m m 8.) v 6 D c D m R g 2 c v I k g L & u m c c g L , f b L z c K < 9 R I c c I 5 u 8.R g.8.N w ",
"y ] D v i c ; # i q i g a i * v j m j  .f # c c u c u g * i a i c c k & q 8 u w f m # u R i c g c % u i g j g N 2 q I p c l j q ",
"N v N 6 c D  . .) 3.2 D 8.g.w.M.M.q q j j c i c < p D I D g  .q w 0.D M.) ) q 0 3.L Z c L u 8 K K c R K g * N j l ] l c : N g m ",
"c a j * j a N N v R # p D c D D  .# , 6 i m u l ; 8 v g m f ] q 2 Z g  .j K 3 < L c c g g q = c f g g N u o c i g N p j # c u j ",
"2 u i g j v 2 , D j D m m u ; v D I D I a # c v v v g i = m v D 3.K ) @ q u g g i m # g K j c k D < f ] $.p.8.C.9 q $.l m c R y ",
"* 6 y q p j 5 : c g j c R q 6 D v c @.D j = j c c g v i 6 m j g m j ) # q g e q q g # i j k p k c 2 q ] I I R 3.6 6 R l j l v 8 ",
"m v ] = g u c g f c + y I u c j l # a l 3.z.R p.q y g.D u.I  .q , j c D j @.5 , R v D m j j < ] g c i ] a # N g m K v ) ; D c j ",
"a j l # 9 y j g g v # u l c y q w # 6 v v j y c ; q g j c f m < , j q j w p 2 < R c l c c 5 = j g g v l y * R N v c g g   u a g ",
"< c g I K R w 5 w.j  .D I u = R g D -.c p * u u v  . .c * 3.R z.C.D v # q l c I v 3.# y c v N f j ; 9 K m l l N < q @.c  .R c q ",
"6 j g i y c < : v f c c g j ,  .c l i v 6 X f w w c u a # j a a j u f # j y c i u g   < p q j f v = u y a j c ] 2 q ) g c c j q ",
"R j @.# i j l c c -., m R N m I 8.< p 3.j v D K 5 y K m K j K 6 4 l l N 7.' f 2 ' c ' l v i 4 ' I m  .) c 2 $.D ] p.c c : K c ] ",
"R j  .= l i c c f D # j R j v c D # y D c D j D , 5 c i c i c 5 = u y a g c 6 * c g ] c c i = v l c l I f # c y c N y u O c g D ",
"f $.I M.-. .8 6 C.K u.v c p # v j j g v j # g j v c i g # R j @.$.v ] * g c '  .i R # l  .c @.I ] , q u y g a c = ; v a N D ] y ",
"q c u m c j 8 6 w.j K p f 6 X u i i j p g # q y p a g f % ] g R l i c o 4 y q u y D o j D l c j l : 2 p q y y i ; : v g g j c 6 ",
"c j c # f u I D a j * a -.v I ] R < N N @.$.l N , 6 $.j c I I y y R ' D j  .6 < I v N R v j = l j N l u.l = K g I ] N R = N c c ",
"D c ] o q i f i j R = g D I K I @.; w ) v ) ] D 2 u I j c c  .8 q  .] K ' D u < -.c D v R y , ] g j K c y * ) N c m c N # l c N "
};
